<?xml version="1.0" standalone="no"?>
<!DOCTYPE svg PUBLIC "-//W3C//DTD SVG 20010904//EN"
 "http://www.w3.org/TR/2001/REC-SVG-20010904/DTD/svg10.dtd">
<svg version="1.0"
    xmlns="http://www.w3.org/2000/svg" width="512.000000pt" height="512.000000pt" viewBox="0 0 512.000000 512.000000" preserveAspectRatio="xMidYMid meet">

    <g transform="translate(0.000000,512.000000) scale(0.100000,-0.100000)" fill="#009933" stroke="none">
        <path d="M1500 4664 c-107 -29 -209 -112 -255 -209 -25 -53 -45 -150 -45 -217
l0 -38 80 0 80 0 0 56 c0 31 5 75 12 98 16 55 101 140 154 155 27 8 442 11
1362 11 1445 0 1351 4 1430 -57 19 -14 45 -49 58 -77 l24 -51 0 -1547 0 -1548
-1249 0 c-1248 0 -1248 0 -1275 -21 -20 -16 -26 -29 -26 -59 0 -48 35 -80 89
-80 42 0 115 -31 150 -63 69 -63 90 -191 47 -282 -28 -60 -56 -87 -116 -114
-41 -19 -65 -21 -250 -21 -117 0 -222 5 -245 11 -53 14 -136 99 -153 155 -7
24 -12 99 -12 178 l0 136 -81 0 -82 0 5 -157 c4 -127 9 -170 26 -217 38 -104
126 -195 232 -239 l55 -22 1529 -3 c1000 -1 1548 1 1584 8 172 31 293 154 323
327 20 116 -20 249 -101 337 -51 55 -142 102 -227 117 l-63 11 -2 1567 -3
1567 -38 76 c-57 116 -152 191 -275 217 -38 8 -431 11 -1370 10 -1126 0 -1325
-2 -1372 -15z"/>
        <path d="M1182 4030 c-194 -35 -364 -144 -466 -298 -225 -342 -140 -780 194
-1004 24 -15 24 -16 5 -23 -407 -149 -697 -522 -745 -956 -14 -123 -7 -179 23
-207 12 -11 68 -43 125 -72 307 -153 617 -224 982 -223 270 0 479 35 720 118
141 49 344 147 382 185 l31 31 -6 117 c-21 424 -302 826 -688 984 l-77 31 57
42 c89 66 166 156 211 248 56 114 74 191 73 317 0 332 -219 622 -523 695 -83
19 -230 27 -298 15z m278 -177 c217 -59 370 -253 387 -489 12 -165 -43 -313
-160 -429 -184 -184 -468 -215 -686 -76 -55 35 -155 139 -184 189 l-18 32 45
0 c172 0 349 104 411 241 35 78 31 138 -16 230 -17 35 -35 79 -40 97 -15 70
29 152 109 203 48 30 49 30 152 2z m35 -1259 c131 -25 325 -113 325 -148 0
-35 -55 -198 -92 -270 -74 -149 -199 -292 -329 -378 -101 -67 -97 -67 -180
-13 -89 57 -215 177 -274 260 -78 109 -147 271 -161 375 l-6 47 79 41 c189 98
414 128 638 86z"/>
        <path d="M4176 4005 c-25 -19 -109 -84 -186 -146 l-141 -111 -69 66 c-79 76
-105 83 -151 37 -49 -49 -40 -72 70 -184 78 -81 115 -107 150 -107 28 0 460
349 468 378 11 46 -33 102 -82 102 -7 0 -34 -16 -59 -35z"/>
        <path d="M2277 3700 c-21 -17 -27 -30 -27 -60 0 -30 6 -43 27 -60 26 -20 33
-21 414 -18 438 3 424 1 424 78 0 77 14 75 -424 78 -381 3 -388 2 -414 -18z"/>
        <path d="M4176 3045 c-25 -19 -109 -84 -186 -146 l-141 -111 -69 66 c-79 76
-105 83 -151 37 -49 -49 -40 -72 70 -184 78 -81 115 -107 150 -107 28 0 460
349 468 378 11 46 -33 102 -82 102 -7 0 -34 -16 -59 -35z"/>
        <path d="M2277 2740 c-21 -17 -27 -30 -27 -60 0 -30 6 -43 27 -60 26 -20 33
-21 414 -18 438 3 424 1 424 78 0 77 14 75 -424 78 -381 3 -388 2 -414 -18z"/>
        <path d="M3454 2101 c-25 -12 -50 -33 -65 -57 -23 -38 -24 -45 -24 -244 0
-196 1 -207 23 -242 42 -68 81 -78 293 -78 172 0 188 2 229 23 83 42 85 48 85
297 0 249 -2 255 -85 298 -41 20 -57 22 -230 22 -159 0 -191 -3 -226 -19z
m386 -301 l0 -160 -160 0 -160 0 0 160 0 160 160 0 160 0 0 -160z"/>
        <path d="M2597 1780 c-21 -17 -27 -30 -27 -60 0 -30 6 -43 27 -60 26 -20 35
-21 255 -18 258 3 263 5 263 78 0 73 -5 75 -263 78 -220 3 -229 2 -255 -18z"/>
    </g>
</svg>
